<svg version="1.1" id="Layer_1" xmlns="http://www.w3.org/2000/svg" x="0" y="0" viewBox="0 0 78 30" xml:space="preserve">
  <style>
    .st0{fill:#231f20}
  </style>
  <path class="st0" d="M74.2 22.3c-2.1 0-3.8 1.7-3.8 3.8 0 2.1 1.7 3.8 3.8 3.8 2.1 0 3.8-1.7 3.8-3.8 0-2-1.7-3.8-3.8-3.8zm3 3.9c0 1.7-1.4 3-3.1 3-1.7 0-3.1-1.4-3.1-3 0-1.7 1.4-3 3.1-3 1.7-.1 3.1 1.3 3.1 3z"/>
  <path class="st0" d="M73.1 25.6c.1 0 .3.1.4.1.1.1.2.1.3 0l.3-.3.1-.1c0-.1 0-.1-.1-.1-.3-.2-.5-.3-.9-.3-.7 0-1.4.6-1.4 1.3 0 .7.6 1.3 1.4 1.3.4 0 .7-.1.9-.4l.1-.1v-.1l-.3-.3c-.1-.1-.2-.1-.3 0-.1.1-.2.1-.4.1-.3 0-.5-.2-.5-.6-.1-.3.1-.5.4-.5zM74.2 26.2c0 .7.6 1.3 1.4 1.3.4 0 .7-.1.9-.4l.1-.1v-.1l-.3-.3c-.1-.1-.2-.1-.3 0-.1.1-.2.1-.4.1-.3 0-.5-.2-.5-.6 0-.3.2-.6.5-.6.1 0 .3.1.4.1l.1.1s.1 0 .1-.1l.3-.3.1-.1c0-.1 0-.1-.1-.1-.3-.2-.5-.3-.9-.3-.8 0-1.4.6-1.4 1.4zM55.5 23.2c0-2.7 0-5.5-.2-8.2-.1-2.1-.7-4-1.7-5.3-1.1-1.5-2.7-2.4-4.7-2.4-4.1 0-6.6 2.7-6.7 3.9 0 .1 0 .1.1.2s.3.1.5.1c.3 0 .9 0 1.4.2 1.7.8 2.4 3.5 2.5 4.9.1 1.5-.4 1.7-1.6 2-2.5.7-5 1.4-7.3 2.7-2.4 1.4-2.9 4.4-1.9 6.5.7 1.5 2.2 2.4 4.1 2.4.6 0 1.2-.1 1.8-.3 1.2-.3 2.2-.8 3.4-1.4.3-.1.6-.3 1-.5.2-.1.4-.1.5-.1 0 0 .1 0 .1.1l.1 1.1c0 .2.1.3.3.3h8.1c.2 0 .3-.1.3-.3v-.4-1.9c-.1-1.3-.1-2.5-.1-3.6zm-8.7-3.6v5c0 1.1-.6 2.3-1.6 2.3-.9 0-2.5-.3-2.5-2.2 0-3.1 3.7-5.2 3.7-5.2.1-.1.2-.1.3-.1h.1v.2zM20.1 23.2c0-2.7 0-5.4-.2-8.1-.2-4.1-2.5-7.1-5.8-7.7-4.5-.7-8.5.8-11.7 4.4-.1.1-.1.3 0 .4.1.1.2.1.4.1l.2-.1c1.1-.6 2.2-.9 3.3-.9 2.7 0 4.6 2 5.1 5.3.2 1.4-.3 1.6-1.6 2-2.5.7-5 1.4-7.3 2.7C.1 22.7-.4 25.7.6 27.8c.6 1.3 2.1 2.2 4 2.2.6 0 1.2-.1 1.8-.3 1.2-.3 2.2-.8 3.4-1.4.3-.1.6-.3 1-.5.2-.1.4-.1.5-.1 0 0 .1 0 .1.1l.1 1.1c0 .2.1.3.3.3h8.1c.2 0 .3-.1.3-.3v-.4-1.9c-.1-1.1-.1-2.1-.1-3.4zm-8.8-3.6v5c0 1.1-.6 2.3-1.6 2.3-.9 0-2.5-.3-2.5-2.2 0-3.1 3.7-5.2 3.7-5.2.1-.1.2-.1.3-.1h.1v.2z"/>
  <path class="st0" d="M39.1 16.9c.2.2.4.4.7.6.1.1.2.1.3 0 .1 0 .2-.2.2-.3V9.9c0-1.5-.2-2.3-.7-2.6-.5-.3-1.3-.1-2.6.7-.8.4-1.4 1-2.1 1.5-.2.1-.3.3-.5.4-.5.4-.9.8-1.5 1.3l-.2.2c-.2.2-.4.2-.4.2s-.1-.1-.1-.2v-4c0-.1 0-.2-.1-.2-.1-.1-.2-.1-.3 0l-9.9 3.4c-.1 0-.2.1-.2.2s0 .2.1.3c2 2.2 2.1 2.2 2.1 5.1V29c0 .1 0 .2.1.2.1.1.1.1.2.1h8.2c.2 0 .3-.1.3-.3 0 0-.3-3.4-.3-15.3 0-.2.1-.4.2-.4.1-.1.3 0 .4 0 .4.2.8.3 1.1.5 1.6.7 2.6 1.1 4 2.2.3.2.7.5 1 .9zM71.7 15.6l.1-.1-.1-.1c0-.2-.2-.3-.3-.3h-4c-.2 0-.3-.2-.3-.6V1.7c0-.2 0-.4.2-.5.3-.1.7.2 1 .6l5.2 7.4c.1.1.2.1.3.1.1 0 .2-.1.2-.3l.2-1.4c.3-1.9.6-3.7.8-5.6 0-.4-.5-1.2-.9-1.2l-.6-.1C71.7.4 69.9 0 68.1 0H68c-4.9 0-8.2 2.6-9.5 7.4-.2.8-.4 1.6-.5 2.4 0 .2-.1.6-.1 1.1 0 .5-.1 1-.1 1.2l-.1 1v2c0 .1.2.2.3.2h3.2c.3 0 .6.1.7.3.1.2 0 .4-.1.5-.6 1-1.1 3.2-2.4 8.6-.2 1-.5 2-.8 3.2l-.1 1.1c0 .1 0 .2.1.2.1.1.1.1.2.1h8c.2 0 .3-.1.3-.3 2.7-11.9 4.6-13.4 4.6-13.4z"/>
</svg>
