<svg xmlns="http://www.w3.org/2000/svg" width="30" height="30">
  <path d="M26.7 24.4c-1.1-1.1-2.1-2.2-3.2-3.3l-4.3-4.3c-.2-.2-.3-.4-.2-.8.4-1.7-.2-3.4-1.6-4.4-1.4-.9-3.2-.9-4.6 0-1.4 1-2 2.6-1.7 4.4 0 .2 0 .6-.1.7l-7.5 7.5-.1.1c-4.1-4.8-5-13.7 1-19.9 5.8-5.9 15.6-5.9 21.4 0 5.9 6.2 5 15.2.9 20z"/>
  <path d="M14.9 13.8c.5.9.8 1.7 1.3 2.4.3.5.6.9 1 1.4.1.2.4.2.6.3.1.1.3.1.4.2l7.4 7.4c-5.2 5.8-15.5 6.3-21.4 0l1.1-1.1 6.2-6.2c.2-.2.5-.2.7-.3.3-.2.6-.3.7-.5.5-.8 1-1.6 1.5-2.5.1-.3.3-.7.5-1.1z"/>
</svg>
